<svg width="57" height="34" xmlns="http://www.w3.org/2000/svg"><g id="Page-1" stroke="none" stroke-width="1" fill="none" fill-rule="evenodd"><g id="acompanhamento" fill="#777"><path d="M32.655 23.452l14.513-12.495a3.163 3.163 0 101.89-5.931 3.166 3.166 0 00-3.21 4.605L31.45 22.027a3.166 3.166 0 00-3.16-.143l-5.554-5.717a3.163 3.163 0 00-2.406-4.58v-.001a3.165 3.165 0 00-3.26 4.51L9.474 23.96a3.166 3.166 0 00-4.45 2.488 3.162 3.162 0 105.85-1.24l7.478-7.737c.35.2.746.337 1.171.39a3.15 3.15 0 001.903-.355l5.53 5.695a3.162 3.162 0 105.698.252z" id="acompanhamento.svg"/></g></g></svg>