<svg width="57" height="34" xmlns="http://www.w3.org/2000/svg"><g id="Page-1" stroke="none" stroke-width="1" fill="none" fill-rule="evenodd"><g id="agendamento" fill="#777"><path d="M39.077 7.846c.52 0 .971.19 1.352.571.38.38.571.831.571 1.352V29c0 .52-.19.972-.57 1.352-.382.38-.832.571-1.353.571H17.923c-.52 0-.971-.19-1.352-.57A1.852 1.852 0 0116 29V9.77c0-.522.19-.972.57-1.353.382-.38.832-.57 1.353-.57h1.923V6.403c0-.661.236-1.227.706-1.698A2.315 2.315 0 0122.25 4h.962c.66 0 1.226.235 1.697.706.471.47.706 1.037.706 1.698v1.442h5.77V6.404c0-.661.235-1.227.706-1.698A2.315 2.315 0 0133.788 4h.962c.661 0 1.227.235 1.698.706.47.47.706 1.037.706 1.698v1.442h1.923zm-5.77-1.442v4.327a.468.468 0 00.481.481h.962c.14 0 .255-.046.346-.136a.468.468 0 00.135-.345V6.404a.468.468 0 00-.135-.346.468.468 0 00-.346-.135h-.962a.468.468 0 00-.345.135.468.468 0 00-.135.346zm-11.538 0v4.327c0 .14.045.255.135.345a.47.47 0 00.346.136h.962c.14 0 .255-.046.345-.136a.468.468 0 00.135-.345V6.404a.468.468 0 00-.135-.346.468.468 0 00-.345-.135h-.962a.468.468 0 00-.346.135.468.468 0 00-.135.346zM39.077 29V13.615H17.923V29h21.154zm-9.615-8.654h3.365c.14 0 .255.045.345.135a.47.47 0 01.136.346v.961c0 .14-.045.256-.136.346a.468.468 0 01-.345.135h-3.365v3.366c0 .14-.046.255-.136.345a.468.468 0 01-.345.135h-.962a.468.468 0 01-.345-.135.468.468 0 01-.136-.345v-3.366h-3.365a.468.468 0 01-.345-.135.468.468 0 01-.136-.346v-.961c0-.14.045-.255.136-.346a.468.468 0 01.345-.135h3.365v-3.365a.47.47 0 01.136-.346.468.468 0 01.345-.135h.962c.14 0 .255.045.345.135a.47.47 0 01.136.346v3.365z" id=""/></g></g></svg>