<svg width="24" height="26" xmlns="http://www.w3.org/2000/svg"><g id="Page-1" stroke="none" stroke-width="1" fill="none" fill-rule="evenodd"><g id="Elementos" transform="translate(-837 -138)" fill="#777"><g id="menu" transform="translate(50 87)"><g id="3" transform="translate(736 32)"><path d="M52.857 43.143h4.179v-4.179h-4.179v4.179zm5.107 0h4.643v-4.179h-4.643v4.179zm-5.107-5.107h4.179v-4.643h-4.179v4.643zm5.107 0h4.643v-4.643h-4.643v4.643zm-5.107-5.572h4.179v-4.178h-4.179v4.178zm10.679 10.679h4.643v-4.179h-4.643v4.179zm-5.572-10.679h4.643v-4.178h-4.643v4.178zm11.143 10.679h4.179v-4.179h-4.179v4.179zm-5.571-5.107h4.643v-4.643h-4.643v4.643zM58.429 25.5v-4.179a.446.446 0 00-.138-.326.446.446 0 00-.327-.138h-.928a.446.446 0 00-.327.138.446.446 0 00-.138.326V25.5c0 .126.046.235.138.326a.447.447 0 00.327.138h.928a.446.446 0 00.327-.138.446.446 0 00.138-.326zm10.678 12.536h4.179v-4.643h-4.179v4.643zm-5.571-5.572h4.643v-4.178h-4.643v4.178zm5.571 0h4.179v-4.178h-4.179v4.178zm.464-6.964v-4.179a.446.446 0 00-.137-.326.446.446 0 00-.327-.138h-.928a.446.446 0 00-.327.138.446.446 0 00-.138.326V25.5c0 .126.046.235.138.326.092.092.2.138.327.138h.928a.446.446 0 00.327-.138.446.446 0 00.137-.326zM75 24.571v18.572c0 .503-.183.938-.548 1.306a1.769 1.769 0 01-1.298.551H52.846c-.5 0-.933-.184-1.298-.551A1.79 1.79 0 0151 43.143V24.57c0-.503.183-.938.548-1.305a1.769 1.769 0 011.298-.552h1.846V21.32c0-.638.226-1.184.678-1.64A2.216 2.216 0 0157 19h.923c.635 0 1.178.227 1.63.682.452.455.678 1.001.678 1.64v1.392h5.538v-1.393c0-.638.226-1.184.678-1.64a2.216 2.216 0 011.63-.681H69c.635 0 1.178.227 1.63.682.452.455.678 1.001.678 1.64v1.392h1.846c.5 0 .933.184 1.298.552.365.367.548.802.548 1.305z" id="calendario.svg"/></g></g></g></g></svg>