<svg width="57" height="34" xmlns="http://www.w3.org/2000/svg"><g id="Page-1" stroke="none" stroke-width="1" fill="none" fill-rule="evenodd"><g id="conteudo" fill="#777"><path d="M25.054 27.01h-6.14a.429.429 0 01-.32-.134.435.435 0 01-.136-.32v-2.729a.436.436 0 01.137-.32.43.43 0 01.318-.135h7.583l-1.442 1.442v2.196zm3.26-5.457h-9.4a.429.429 0 01-.32-.135.435.435 0 01-.136-.32V18.37a.436.436 0 01.137-.32.43.43 0 01.318-.135h13.04l-3.638 3.638zm5.46-5.457h-14.86a.429.429 0 01-.32-.135.435.435 0 01-.136-.32v-2.729a.436.436 0 01.137-.32.43.43 0 01.318-.135h18.499l-3.639 3.639zm-17.272 7.41a.44.44 0 01.137.321v2.729a.435.435 0 01-.137.32.429.429 0 01-.318.134h-2.73a.429.429 0 01-.318-.134.435.435 0 01-.136-.32v-2.729a.436.436 0 01.136-.32.43.43 0 01.319-.135h2.729a.43.43 0 01.318.135zm0-5.457c.088.084.138.2.137.32v2.73a.435.435 0 01-.137.32.429.429 0 01-.318.134h-2.73a.429.429 0 01-.318-.135.435.435 0 01-.136-.32V18.37a.436.436 0 01.136-.32.43.43 0 01.319-.135h2.729a.43.43 0 01.318.134zm0-5.457c.088.083.138.2.137.32v2.729a.435.435 0 01-.137.32.429.429 0 01-.318.135h-2.73a.429.429 0 01-.318-.135.435.435 0 01-.136-.32v-2.729a.436.436 0 01.136-.32.43.43 0 01.319-.135h2.729a.43.43 0 01.318.135zm0-5.457a.436.436 0 01.137.32v2.729c0 .12-.049.236-.137.319a.429.429 0 01-.318.135h-2.73a.429.429 0 01-.318-.135.435.435 0 01-.136-.32V7.456a.436.436 0 01.136-.32.43.43 0 01.319-.135h2.729a.43.43 0 01.318.135zm21.833 0a.436.436 0 01.137.32v2.729c0 .12-.049.236-.137.319a.429.429 0 01-.318.135H18.913a.429.429 0 01-.318-.135.435.435 0 01-.137-.32V7.456a.436.436 0 01.137-.32.43.43 0 01.318-.135h19.104a.43.43 0 01.318.135zm1.963 7.377c-2.642 2.641-8.908 8.912-11.31 11.32a5.42 5.42 0 011.997 1.353 5.52 5.52 0 011.17 1.739c2.426-2.403 8.585-8.499 11.264-11.167a4.388 4.388 0 00-3.12-3.245zm1.089-1.088a5.768 5.768 0 013.135 3.23l.136-.137a2.448 2.448 0 00.846-1.675 2.358 2.358 0 00-.864-1.588 2.145 2.145 0 00-1.483-.687 2.638 2.638 0 00-1.665.753l-.105.104zM31.025 29.88a4.417 4.417 0 00-2.965-2.886c-.316 1.06-.977 3.05-1.36 4.328 1.312-.423 3.374-1.134 4.325-1.442zM25.745 33a.693.693 0 01-.664-.902c.018-.049 1.492-4.891 1.792-5.982a.623.623 0 01.182-.31c.09-.084 13.09-13.098 13.473-13.48a3.93 3.93 0 012.629-1.156 3.49 3.49 0 012.438 1.072 3.665 3.665 0 011.292 2.576 3.765 3.765 0 01-1.238 2.674c-.81.837-13.018 12.916-13.536 13.427a.707.707 0 01-.291.17c-.819.246-5.813 1.862-5.868 1.878a.679.679 0 01-.209.033z" id="conteudo.svg"/></g></g></svg>