<svg width="57" height="34" xmlns="http://www.w3.org/2000/svg"><g id="Page-1" stroke="none" stroke-width="1" fill="none" fill-rule="evenodd"><g id="dashboard" fill="#777"><path d="M29.747 24.912a2.77 2.77 0 011.248 2.319A2.762 2.762 0 0128.24 30a2.762 2.762 0 01-2.755-2.77c0-.97.497-1.823 1.248-2.318l1.507-10.604 1.507 10.604zm19.613 2.319h-2.755c0-10.196-8.222-18.462-18.365-18.462-10.143 0-18.365 8.266-18.365 18.462H7.12C7.12 15.505 16.576 6 28.24 6c11.664 0 21.12 9.505 21.12 21.23zm-36.73-1.846a.92.92 0 01.918.923.92.92 0 01-.918.923.92.92 0 01-.919-.923.92.92 0 01.919-.923zm1.836-5.539a.92.92 0 01.918.923.92.92 0 01-.918.923.92.92 0 01-.918-.923.92.92 0 01.918-.923zm2.755-4.615a.92.92 0 01.918.923.92.92 0 01-.918.923.92.92 0 01-.918-.923.92.92 0 01.918-.923zm4.591-2.77a.92.92 0 01.918.924.92.92 0 01-.918.923.92.92 0 01-.918-.923.92.92 0 01.918-.923zm6.428-1.846a.92.92 0 01.918.923.92.92 0 01-.918.924.92.92 0 01-.918-.924.92.92 0 01.918-.923zm15.61 14.77a.92.92 0 00-.918.923c0 .51.411.923.918.923a.92.92 0 00.919-.923.92.92 0 00-.919-.923zm-1.836-5.539a.92.92 0 00-.918.923c0 .51.41.923.918.923a.92.92 0 00.918-.923.92.92 0 00-.918-.923zm-2.755-4.615a.92.92 0 00-.918.923c0 .51.411.923.918.923a.92.92 0 00.918-.923.92.92 0 00-.918-.923zm-4.591-2.77a.92.92 0 00-.918.924c0 .51.41.923.918.923a.92.92 0 00.918-.923.92.92 0 00-.918-.923z" id="dashboard.svg"/></g></g></svg>