<svg width="57" height="34" xmlns="http://www.w3.org/2000/svg"><g id="Page-1" stroke="none" stroke-width="1" fill="none" fill-rule="evenodd"><g id="inbox" fill="#777"><path d="M32.586 18.1h5.432a4.984 4.984 0 01-.043-.138 4.983 4.983 0 00-.043-.137L34.287 9.3h-12.17l-3.645 8.525a.798.798 0 00-.043.137.798.798 0 01-.043.138h5.433l1.633 3.3h5.5l1.634-3.3zm8.818.516V26.9c0 .298-.109.556-.327.773a1.057 1.057 0 01-.773.327H16.1c-.298 0-.556-.109-.773-.327A1.057 1.057 0 0115 26.9v-8.284c0-.71.143-1.415.43-2.114l4.091-9.488c.115-.286.324-.527.627-.722.304-.195.605-.292.903-.292h14.302c.298 0 .599.097.903.292.303.195.512.436.627.722l4.091 9.488c.287.699.43 1.403.43 2.114z" id="inbox.svg"/></g></g></svg>